# xmcd
#
# Track frame offsets:
# 150
# 16373
# 31633
# 45976
# 63773
# 80688
# 95988
# 113098
# 128521
# 145093
# 164551
# 179121
# 193923
# 210423
#
# Disc length: 3072 seconds
#
#
# Revision: 0
# Processed by: cddbd v1.5.2PL0 Copyright (c) Steve Scherf et al.
# Submitted via: FreeRIP 2.951 
#
DISCID=bd0bfe0e
DTITLE=Leonardo - Todo Seu - (Disco 4)
DYEAR=2005
DGENRE=Sertanejo
TTITLE0=Fantasias
TTITLE1=Brincadeira Tem Hora
TTITLE2=Te Amo Demais
TTITLE3=Tua Sombra em Meu Caminho
TTITLE4=A Desconhecida
TTITLE5=E Não Vou Mais Deixar Você Tão Só
TTITLE6=Quero Acender Ter Fogo (Candela)
TTITLE7=A Malvada (Esa Malvada)
TTITLE8=Ninguém Vai Tirar Você de Mim
TTITLE9=Eu Sei que Te Perdi (Sexed Up)
TTITLE10=Meu Mel (Music)
TTITLE11=Vem Sonhar (Parlami D'Amore Mariù)
TTITLE12=Nervos de Aço
TTITLE13=O Meu Grande Amor
EXTD=
EXTT0=
EXTT1=
EXTT2=
EXTT3=
EXTT4=
EXTT5=
EXTT6=
EXTT7=
EXTT8=
EXTT9=
EXTT10=
EXTT11=
EXTT12=
EXTT13=
PLAYORDER=
